<?xml version="1.0" encoding="UTF-8" standalone="no"?>
<!DOCTYPE svg PUBLIC "-//W3C//DTD SVG 1.1//EN"
 "http://www.w3.org/Graphics/SVG/1.1/DTD/svg11.dtd">
<!-- Generated by graphviz version 2.38.0 (20140413.2041)
 -->
<!-- Title: models_diagram Pages: 1 -->
<svg width="2005pt" height="415pt"
 viewBox="0.00 0.00 2005.00 415.00" xmlns="http://www.w3.org/2000/svg" xmlns:xlink="http://www.w3.org/1999/xlink">
<g id="graph0" class="graph" transform="scale(1 1) rotate(0) translate(4 411)">
<title>models_diagram</title>
<polygon fill="none" stroke="none" points="-4,4 -4,-411 2001,-411 2001,4 -4,4"/>
<!-- _diagram_info -->
<g id="node1" class="node"><title>_diagram_info</title>
<text text-anchor="start" x="8" y="-228.1" font-family="Times,serif" font-size="13.00">Models diagram</text>
<text text-anchor="start" x="8" y="-214.1" font-family="Times,serif" font-size="13.00">Date: Sep 26 2016 &#45; 17:31</text>
<text text-anchor="start" x="8" y="-200.1" font-family="Times,serif" font-size="13.00">Migration version: 20160926154215</text>
<text text-anchor="start" x="8" y="-186.1" font-family="Times,serif" font-size="13.00">Generated by RailRoady 1.5.2</text>
<text text-anchor="start" x="8" y="-172.1" font-family="Times,serif" font-size="13.00">http://railroady.prestonlee.com</text>
</g>
<!-- Cidade -->
<g id="node2" class="node"><title>Cidade</title>
<path fill="none" stroke="black" d="M244.5,-150.5C244.5,-150.5 351.5,-150.5 351.5,-150.5 357.5,-150.5 363.5,-156.5 363.5,-162.5 363.5,-162.5 363.5,-244.5 363.5,-244.5 363.5,-250.5 357.5,-256.5 351.5,-256.5 351.5,-256.5 244.5,-256.5 244.5,-256.5 238.5,-256.5 232.5,-250.5 232.5,-244.5 232.5,-244.5 232.5,-162.5 232.5,-162.5 232.5,-156.5 238.5,-150.5 244.5,-150.5"/>
<text text-anchor="middle" x="298" y="-241.3" font-family="Times,serif" font-size="14.00">Cidade</text>
<polyline fill="none" stroke="black" points="232.5,-233.5 363.5,-233.5 "/>
<text text-anchor="start" x="240.5" y="-218.3" font-family="Times,serif" font-size="14.00">id :int(11)</text>
<text text-anchor="start" x="240.5" y="-203.3" font-family="Times,serif" font-size="14.00">nome :varchar(255)</text>
<text text-anchor="start" x="240.5" y="-188.3" font-family="Times,serif" font-size="14.00">estado_id :int(11)</text>
<text text-anchor="start" x="240.5" y="-173.3" font-family="Times,serif" font-size="14.00">created_at :datetime</text>
<text text-anchor="start" x="240.5" y="-158.3" font-family="Times,serif" font-size="14.00">updated_at :datetime</text>
</g>
<!-- Questao -->
<g id="node3" class="node"><title>Questao</title>
<path fill="none" stroke="black" d="M394,-113C394,-113 564,-113 564,-113 570,-113 576,-119 576,-125 576,-125 576,-282 576,-282 576,-288 570,-294 564,-294 564,-294 394,-294 394,-294 388,-294 382,-288 382,-282 382,-282 382,-125 382,-125 382,-119 388,-113 394,-113"/>
<text text-anchor="middle" x="479" y="-278.8" font-family="Times,serif" font-size="14.00">Questao</text>
<polyline fill="none" stroke="black" points="382,-271 576,-271 "/>
<text text-anchor="start" x="390" y="-255.8" font-family="Times,serif" font-size="14.00">id :int(11)</text>
<text text-anchor="start" x="390" y="-240.8" font-family="Times,serif" font-size="14.00">enunciado :text</text>
<text text-anchor="start" x="390" y="-225.8" font-family="Times,serif" font-size="14.00">prova_id :int(11)</text>
<text text-anchor="start" x="390" y="-210.8" font-family="Times,serif" font-size="14.00">disciplina_id :int(11)</text>
<text text-anchor="start" x="390" y="-195.8" font-family="Times,serif" font-size="14.00">gabarito :varchar(255)</text>
<text text-anchor="start" x="390" y="-180.8" font-family="Times,serif" font-size="14.00">anulada :int(11)</text>
<text text-anchor="start" x="390" y="-165.8" font-family="Times,serif" font-size="14.00">texto_id :int(11)</text>
<text text-anchor="start" x="390" y="-150.8" font-family="Times,serif" font-size="14.00">quantidade_comentarios :int(11)</text>
<text text-anchor="start" x="390" y="-135.8" font-family="Times,serif" font-size="14.00">created_at :datetime</text>
<text text-anchor="start" x="390" y="-120.8" font-family="Times,serif" font-size="14.00">updated_at :datetime</text>
</g>
<!-- Estado -->
<g id="node4" class="node"><title>Estado</title>
<path fill="none" stroke="black" d="M606.5,-150.5C606.5,-150.5 713.5,-150.5 713.5,-150.5 719.5,-150.5 725.5,-156.5 725.5,-162.5 725.5,-162.5 725.5,-244.5 725.5,-244.5 725.5,-250.5 719.5,-256.5 713.5,-256.5 713.5,-256.5 606.5,-256.5 606.5,-256.5 600.5,-256.5 594.5,-250.5 594.5,-244.5 594.5,-244.5 594.5,-162.5 594.5,-162.5 594.5,-156.5 600.5,-150.5 606.5,-150.5"/>
<text text-anchor="middle" x="660" y="-241.3" font-family="Times,serif" font-size="14.00">Estado</text>
<polyline fill="none" stroke="black" points="594.5,-233.5 725.5,-233.5 "/>
<text text-anchor="start" x="602.5" y="-218.3" font-family="Times,serif" font-size="14.00">id :int(11)</text>
<text text-anchor="start" x="602.5" y="-203.3" font-family="Times,serif" font-size="14.00">sigla :varchar(255)</text>
<text text-anchor="start" x="602.5" y="-188.3" font-family="Times,serif" font-size="14.00">nome :varchar(255)</text>
<text text-anchor="start" x="602.5" y="-173.3" font-family="Times,serif" font-size="14.00">created_at :datetime</text>
<text text-anchor="start" x="602.5" y="-158.3" font-family="Times,serif" font-size="14.00">updated_at :datetime</text>
</g>
<!-- Escolaridade -->
<g id="node5" class="node"><title>Escolaridade</title>
<path fill="none" stroke="black" d="M755.5,-158C755.5,-158 862.5,-158 862.5,-158 868.5,-158 874.5,-164 874.5,-170 874.5,-170 874.5,-237 874.5,-237 874.5,-243 868.5,-249 862.5,-249 862.5,-249 755.5,-249 755.5,-249 749.5,-249 743.5,-243 743.5,-237 743.5,-237 743.5,-170 743.5,-170 743.5,-164 749.5,-158 755.5,-158"/>
<text text-anchor="middle" x="809" y="-233.8" font-family="Times,serif" font-size="14.00">Escolaridade</text>
<polyline fill="none" stroke="black" points="743.5,-226 874.5,-226 "/>
<text text-anchor="start" x="751.5" y="-210.8" font-family="Times,serif" font-size="14.00">id :int(11)</text>
<text text-anchor="start" x="751.5" y="-195.8" font-family="Times,serif" font-size="14.00">nome :varchar(255)</text>
<text text-anchor="start" x="751.5" y="-180.8" font-family="Times,serif" font-size="14.00">created_at :datetime</text>
<text text-anchor="start" x="751.5" y="-165.8" font-family="Times,serif" font-size="14.00">updated_at :datetime</text>
</g>
<!-- Texto -->
<g id="node6" class="node"><title>Texto</title>
<path fill="none" stroke="black" d="M904.5,-158C904.5,-158 1011.5,-158 1011.5,-158 1017.5,-158 1023.5,-164 1023.5,-170 1023.5,-170 1023.5,-237 1023.5,-237 1023.5,-243 1017.5,-249 1011.5,-249 1011.5,-249 904.5,-249 904.5,-249 898.5,-249 892.5,-243 892.5,-237 892.5,-237 892.5,-170 892.5,-170 892.5,-164 898.5,-158 904.5,-158"/>
<text text-anchor="middle" x="958" y="-233.8" font-family="Times,serif" font-size="14.00">Texto</text>
<polyline fill="none" stroke="black" points="892.5,-226 1023.5,-226 "/>
<text text-anchor="start" x="900.5" y="-210.8" font-family="Times,serif" font-size="14.00">id :int(11)</text>
<text text-anchor="start" x="900.5" y="-195.8" font-family="Times,serif" font-size="14.00">conteudo :text</text>
<text text-anchor="start" x="900.5" y="-180.8" font-family="Times,serif" font-size="14.00">created_at :datetime</text>
<text text-anchor="start" x="900.5" y="-165.8" font-family="Times,serif" font-size="14.00">updated_at :datetime</text>
</g>
<!-- Alternative -->
<g id="node7" class="node"><title>Alternative</title>
<path fill="none" stroke="black" d="M1053.5,-143C1053.5,-143 1160.5,-143 1160.5,-143 1166.5,-143 1172.5,-149 1172.5,-155 1172.5,-155 1172.5,-252 1172.5,-252 1172.5,-258 1166.5,-264 1160.5,-264 1160.5,-264 1053.5,-264 1053.5,-264 1047.5,-264 1041.5,-258 1041.5,-252 1041.5,-252 1041.5,-155 1041.5,-155 1041.5,-149 1047.5,-143 1053.5,-143"/>
<text text-anchor="middle" x="1107" y="-248.8" font-family="Times,serif" font-size="14.00">Alternative</text>
<polyline fill="none" stroke="black" points="1041.5,-241 1172.5,-241 "/>
<text text-anchor="start" x="1049.5" y="-225.8" font-family="Times,serif" font-size="14.00">id :int(11)</text>
<text text-anchor="start" x="1049.5" y="-210.8" font-family="Times,serif" font-size="14.00">enunciado :text</text>
<text text-anchor="start" x="1049.5" y="-195.8" font-family="Times,serif" font-size="14.00">questao_id :int(11)</text>
<text text-anchor="start" x="1049.5" y="-180.8" font-family="Times,serif" font-size="14.00">item :varchar(255)</text>
<text text-anchor="start" x="1049.5" y="-165.8" font-family="Times,serif" font-size="14.00">created_at :datetime</text>
<text text-anchor="start" x="1049.5" y="-150.8" font-family="Times,serif" font-size="14.00">updated_at :datetime</text>
</g>
<!-- Prova -->
<g id="node8" class="node"><title>Prova</title>
<path fill="none" stroke="black" d="M1203,-105.5C1203,-105.5 1323,-105.5 1323,-105.5 1329,-105.5 1335,-111.5 1335,-117.5 1335,-117.5 1335,-289.5 1335,-289.5 1335,-295.5 1329,-301.5 1323,-301.5 1323,-301.5 1203,-301.5 1203,-301.5 1197,-301.5 1191,-295.5 1191,-289.5 1191,-289.5 1191,-117.5 1191,-117.5 1191,-111.5 1197,-105.5 1203,-105.5"/>
<text text-anchor="middle" x="1263" y="-286.3" font-family="Times,serif" font-size="14.00">Prova</text>
<polyline fill="none" stroke="black" points="1191,-278.5 1335,-278.5 "/>
<text text-anchor="start" x="1199" y="-263.3" font-family="Times,serif" font-size="14.00">id :int(11)</text>
<text text-anchor="start" x="1199" y="-248.3" font-family="Times,serif" font-size="14.00">nome :varchar(255)</text>
<text text-anchor="start" x="1199" y="-233.3" font-family="Times,serif" font-size="14.00">ano :varchar(255)</text>
<text text-anchor="start" x="1199" y="-218.3" font-family="Times,serif" font-size="14.00">orgao_id :int(11)</text>
<text text-anchor="start" x="1199" y="-203.3" font-family="Times,serif" font-size="14.00">concurso_id :int(11)</text>
<text text-anchor="start" x="1199" y="-188.3" font-family="Times,serif" font-size="14.00">disciplina_id :int(11)</text>
<text text-anchor="start" x="1199" y="-173.3" font-family="Times,serif" font-size="14.00">processada :int(11)</text>
<text text-anchor="start" x="1199" y="-158.3" font-family="Times,serif" font-size="14.00">questoes_count :int(11)</text>
<text text-anchor="start" x="1199" y="-143.3" font-family="Times,serif" font-size="14.00">processada_em :date</text>
<text text-anchor="start" x="1199" y="-128.3" font-family="Times,serif" font-size="14.00">created_at :datetime</text>
<text text-anchor="start" x="1199" y="-113.3" font-family="Times,serif" font-size="14.00">updated_at :datetime</text>
</g>
<!-- Orgao -->
<g id="node9" class="node"><title>Orgao</title>
<path fill="none" stroke="black" d="M1365.5,-158C1365.5,-158 1472.5,-158 1472.5,-158 1478.5,-158 1484.5,-164 1484.5,-170 1484.5,-170 1484.5,-237 1484.5,-237 1484.5,-243 1478.5,-249 1472.5,-249 1472.5,-249 1365.5,-249 1365.5,-249 1359.5,-249 1353.5,-243 1353.5,-237 1353.5,-237 1353.5,-170 1353.5,-170 1353.5,-164 1359.5,-158 1365.5,-158"/>
<text text-anchor="middle" x="1419" y="-233.8" font-family="Times,serif" font-size="14.00">Orgao</text>
<polyline fill="none" stroke="black" points="1353.5,-226 1484.5,-226 "/>
<text text-anchor="start" x="1361.5" y="-210.8" font-family="Times,serif" font-size="14.00">id :int(11)</text>
<text text-anchor="start" x="1361.5" y="-195.8" font-family="Times,serif" font-size="14.00">nome :varchar(255)</text>
<text text-anchor="start" x="1361.5" y="-180.8" font-family="Times,serif" font-size="14.00">created_at :datetime</text>
<text text-anchor="start" x="1361.5" y="-165.8" font-family="Times,serif" font-size="14.00">updated_at :datetime</text>
</g>
<!-- Situacao -->
<g id="node10" class="node"><title>Situacao</title>
<path fill="none" stroke="black" d="M1514.5,-158C1514.5,-158 1621.5,-158 1621.5,-158 1627.5,-158 1633.5,-164 1633.5,-170 1633.5,-170 1633.5,-237 1633.5,-237 1633.5,-243 1627.5,-249 1621.5,-249 1621.5,-249 1514.5,-249 1514.5,-249 1508.5,-249 1502.5,-243 1502.5,-237 1502.5,-237 1502.5,-170 1502.5,-170 1502.5,-164 1508.5,-158 1514.5,-158"/>
<text text-anchor="middle" x="1568" y="-233.8" font-family="Times,serif" font-size="14.00">Situacao</text>
<polyline fill="none" stroke="black" points="1502.5,-226 1633.5,-226 "/>
<text text-anchor="start" x="1510.5" y="-210.8" font-family="Times,serif" font-size="14.00">id :int(11)</text>
<text text-anchor="start" x="1510.5" y="-195.8" font-family="Times,serif" font-size="14.00">nome :varchar(255)</text>
<text text-anchor="start" x="1510.5" y="-180.8" font-family="Times,serif" font-size="14.00">created_at :datetime</text>
<text text-anchor="start" x="1510.5" y="-165.8" font-family="Times,serif" font-size="14.00">updated_at :datetime</text>
</g>
<!-- Concurso -->
<g id="node11" class="node"><title>Concurso</title>
<path fill="none" stroke="black" d="M1663.5,-0.5C1663.5,-0.5 1820.5,-0.5 1820.5,-0.5 1826.5,-0.5 1832.5,-6.5 1832.5,-12.5 1832.5,-12.5 1832.5,-394.5 1832.5,-394.5 1832.5,-400.5 1826.5,-406.5 1820.5,-406.5 1820.5,-406.5 1663.5,-406.5 1663.5,-406.5 1657.5,-406.5 1651.5,-400.5 1651.5,-394.5 1651.5,-394.5 1651.5,-12.5 1651.5,-12.5 1651.5,-6.5 1657.5,-0.5 1663.5,-0.5"/>
<text text-anchor="middle" x="1742" y="-391.3" font-family="Times,serif" font-size="14.00">Concurso</text>
<polyline fill="none" stroke="black" points="1651.5,-383.5 1832.5,-383.5 "/>
<text text-anchor="start" x="1659.5" y="-368.3" font-family="Times,serif" font-size="14.00">id :int(11)</text>
<text text-anchor="start" x="1659.5" y="-353.3" font-family="Times,serif" font-size="14.00">nome :varchar(255)</text>
<text text-anchor="start" x="1659.5" y="-338.3" font-family="Times,serif" font-size="14.00">descricao :text</text>
<text text-anchor="start" x="1659.5" y="-323.3" font-family="Times,serif" font-size="14.00">sigla :varchar(255)</text>
<text text-anchor="start" x="1659.5" y="-308.3" font-family="Times,serif" font-size="14.00">nome_url :varchar(255)</text>
<text text-anchor="start" x="1659.5" y="-293.3" font-family="Times,serif" font-size="14.00">url :varchar(255)</text>
<text text-anchor="start" x="1659.5" y="-278.3" font-family="Times,serif" font-size="14.00">ano :varchar(255)</text>
<text text-anchor="start" x="1659.5" y="-263.3" font-family="Times,serif" font-size="14.00">periodo_inscricao_inicio :date</text>
<text text-anchor="start" x="1659.5" y="-248.3" font-family="Times,serif" font-size="14.00">periodo_inscricao_fim :date</text>
<text text-anchor="start" x="1659.5" y="-233.3" font-family="Times,serif" font-size="14.00">data_prova :date</text>
<text text-anchor="start" x="1659.5" y="-218.3" font-family="Times,serif" font-size="14.00">remuneracao :float</text>
<text text-anchor="start" x="1659.5" y="-203.3" font-family="Times,serif" font-size="14.00">cargo :varchar(255)</text>
<text text-anchor="start" x="1659.5" y="-188.3" font-family="Times,serif" font-size="14.00">idade :varchar(255)</text>
<text text-anchor="start" x="1659.5" y="-173.3" font-family="Times,serif" font-size="14.00">taxa_inscricao :float</text>
<text text-anchor="start" x="1659.5" y="-158.3" font-family="Times,serif" font-size="14.00">situacao_id :int(11)</text>
<text text-anchor="start" x="1659.5" y="-143.3" font-family="Times,serif" font-size="14.00">orgao_id :int(11)</text>
<text text-anchor="start" x="1659.5" y="-128.3" font-family="Times,serif" font-size="14.00">vagas :int(11)</text>
<text text-anchor="start" x="1659.5" y="-113.3" font-family="Times,serif" font-size="14.00">salario :float</text>
<text text-anchor="start" x="1659.5" y="-98.3" font-family="Times,serif" font-size="14.00">scribel :varchar(255)</text>
<text text-anchor="start" x="1659.5" y="-83.3" font-family="Times,serif" font-size="14.00">escolaridade_id :int(11)</text>
<text text-anchor="start" x="1659.5" y="-68.3" font-family="Times,serif" font-size="14.00">aberto_em :date</text>
<text text-anchor="start" x="1659.5" y="-53.3" font-family="Times,serif" font-size="14.00">local :text</text>
<text text-anchor="start" x="1659.5" y="-38.3" font-family="Times,serif" font-size="14.00">prova_count :int(11)</text>
<text text-anchor="start" x="1659.5" y="-23.3" font-family="Times,serif" font-size="14.00">created_at :datetime</text>
<text text-anchor="start" x="1659.5" y="-8.3" font-family="Times,serif" font-size="14.00">updated_at :datetime</text>
</g>
<!-- Disciplina -->
<g id="node12" class="node"><title>Disciplina</title>
<path fill="none" stroke="black" d="M1863,-128C1863,-128 1985,-128 1985,-128 1991,-128 1997,-134 1997,-140 1997,-140 1997,-267 1997,-267 1997,-273 1991,-279 1985,-279 1985,-279 1863,-279 1863,-279 1857,-279 1851,-273 1851,-267 1851,-267 1851,-140 1851,-140 1851,-134 1857,-128 1863,-128"/>
<text text-anchor="middle" x="1924" y="-263.8" font-family="Times,serif" font-size="14.00">Disciplina</text>
<polyline fill="none" stroke="black" points="1851,-256 1997,-256 "/>
<text text-anchor="start" x="1859" y="-240.8" font-family="Times,serif" font-size="14.00">id :int(11)</text>
<text text-anchor="start" x="1859" y="-225.8" font-family="Times,serif" font-size="14.00">nome :varchar(255)</text>
<text text-anchor="start" x="1859" y="-210.8" font-family="Times,serif" font-size="14.00">nome_url :varchar(255)</text>
<text text-anchor="start" x="1859" y="-195.8" font-family="Times,serif" font-size="14.00">provas_count :int(11)</text>
<text text-anchor="start" x="1859" y="-180.8" font-family="Times,serif" font-size="14.00">questoes_count :int(11)</text>
<text text-anchor="start" x="1859" y="-165.8" font-family="Times,serif" font-size="14.00">hit :int(11)</text>
<text text-anchor="start" x="1859" y="-150.8" font-family="Times,serif" font-size="14.00">created_at :datetime</text>
<text text-anchor="start" x="1859" y="-135.8" font-family="Times,serif" font-size="14.00">updated_at :datetime</text>
</g>
</g>
</svg>
